# xmcd
#
# Track frame offsets:
#	150
#	16174
#	29468
#	47087
#	60603
#	76849
#	91804
#	108784
#	124452
#	138668
#	153220
#	168854
#	185168
#	198363
#	215669
#	231590
#	247145
#	264069
#	276059
#	287435
#	295231
#	308426
#
# Disc length: 4344 seconds
# Revision: 0
# Processed by: cddbd v1.5.2PL0 Copyright (c) Steve Scherf et al.
# Submitted via: dBpowerAMP V12.0
#
DISCID=3510f616
DTITLE=Various Artist - Country Radio December 2008
DYEAR=2008
DGENRE=Country
TTITLE0=Zac Brown Band - Chicken Fried
TTITLE1=Kenny Chesney With Mac McAnally - Down The Road
TTITLE2=Aaron Pritchett - How Do I Get There
TTITLE3=George Canyon - Just Like You
TTITLE4=Darius Rucker - It Won't Be Like This For Long
TTITLE5=Gary Allen - She's So California
TTITLE6=John Michael Montgomery - Forever
TTITLE7=Toby Keith - God Love Her
TTITLE8=Randy Houser - Anything Goes
TTITLE9=Wilkinsons The - When I'm Old
TTITLE10=Adam Gregory - What It Takes
TTITLE11=Jack Ingram - That's A Man
TTITLE12=Joey and Rory - Cheater Cheater
TTITLE13=Jamie O'Neal - Like A Woman
TTITLE14=Crystal Shawanda - My Roots Are Showing
TTITLE15=Jewel - Till It Feels Like Cheating
TTITLE16=Jaydee Bixby - Boys In The Band
TTITLE17=Lost Trailers The - How Bout You Don't
TTITLE18=Hank Wiliamm Jr - Six Pack Of Beer
TTITLE19=Geroge Strait - We Wish You A Merry Christmas
TTITLE20=Rascal Flatts - Jingle Bell Rock
TTITLE21=Carrie Underwood - O Holy Night
EXTD=
EXTT0=
EXTT1=
EXTT2=
EXTT3=
EXTT4=
EXTT5=
EXTT6=
EXTT7=
EXTT8=
EXTT9=
EXTT10=
EXTT11=
EXTT12=
EXTT13=
EXTT14=
EXTT15=
EXTT16=
EXTT17=
EXTT18=
EXTT19=
EXTT20=
EXTT21=
PLAYORDER=
